<svg width="30" height="30" viewBox="0 0 30 30" fill="none" xmlns="http://www.w3.org/2000/svg">
<g clip-path="url(#clip0_135_15)">
<path d="M28.4183 25.2554V23.6774V22.099H26.84V20.5207H25.2617V18.9424H23.6837V17.3574H22.105H20.5267H18.9483V18.9424H17.37H15.7917V18.9483H14.2083H12.63H11.0517V17.3634H9.47334H7.895H6.31666V18.9483H4.73833V20.5267H3.15999V22.1047H1.58165V23.683V25.2613H0V26.84V28.418V30H1.58165H3.15999H4.73833H6.31666H7.895H9.47334H11.0517H12.63H14.2083H15.7963V29.994H17.37H18.9483H20.5267H22.105H23.6837H25.2617H26.84H28.4183H30V28.4124V26.834V25.2554H28.4183Z" fill="black"/>
<path d="M22.1051 4.72573V3.14773H20.5267V1.56906H18.9484V-0.00894737H17.3701H15.7917V-0.00331055H14.2038H12.6251H11.0468V1.57503H9.46844V3.15336H7.89044V4.7317H6.31177V6.31004V7.88837V9.46671V11.045H7.89044V12.6234H9.46844V14.2017H11.0468V15.7834H12.6251H14.2038H15.7917V15.7774H17.3701H18.9484V14.1957H20.5267V12.6177H22.1051V11.0391H23.6838V9.46107V7.8824V6.3044V4.72573H22.1051Z" fill="black"/>
</g>
<defs>
<clipPath id="clip0_135_15">
<rect width="30" height="30" fill="white"/>
</clipPath>
</defs>
</svg>
