<svg width="103" height="103" viewBox="0 0 103 103" fill="none" xmlns="http://www.w3.org/2000/svg" shape-rendering="crispEdges">
<rect x="25.8777" y="11" width="7.43884" height="74.3884" fill="white"/>
<rect x="33.3165" y="11" width="7.43884" height="7.43884" fill="white"/>
<rect x="40.7554" y="11" width="7.43884" height="7.43884" fill="white"/>
<rect x="48.1942" y="11" width="7.43884" height="7.43884" fill="white"/>
<rect x="55.6331" y="11" width="7.43884" height="7.43884" fill="white"/>
<rect x="63.0719" y="11" width="7.43884" height="7.43884" fill="white"/>
<rect x="70.5107" y="11" width="7.43884" height="7.43884" fill="white"/>
<rect x="77.9496" y="18.439" width="7.43884" height="7.43884" fill="white"/>
<rect x="39.147" y="33.3164" width="38.8026" height="7.43884" fill="white"/>
<rect x="39.147" y="48.1943" width="38.8026" height="7.43884" fill="white"/>
<rect x="39.147" y="63.0723" width="38.8026" height="7.43884" fill="white"/>
<rect x="11" y="40.7554" width="14.8777" height="7.43884" fill="white"/>
<rect x="18.4388" y="85.3887" width="7.43884" height="7.43884" fill="white"/>
<rect x="11" y="77.9497" width="7.43884" height="7.43884" fill="white"/>
<rect x="11" y="48.1943" width="7.43884" height="29.7554" fill="white"/>
<rect x="33.3165" y="85.3887" width="52.0719" height="7.43884" fill="white"/>
<rect x="85.3884" y="25.8779" width="7.43884" height="59.5107" fill="white"/>
</svg>
