<svg width="102" height="102" viewBox="0 0 102 102" fill="none" xmlns="http://www.w3.org/2000/svg" shape-rendering="crispEdges">
<path d="M62.3332 0H39.6665V5.66667H62.3332V0Z" fill="white"/>
<path d="M22.6667 22.6665H17V45.3332H22.6667V22.6665Z" fill="white"/>
<path d="M28.3332 45.333H22.6665V56.6663H28.3332V45.333Z" fill="white"/>
<path d="M39.6668 5.6665H28.3335V11.3332H39.6668V5.6665Z" fill="white"/>
<path d="M28.3332 11.333H22.6665V22.6663H28.3332V11.333Z" fill="white"/>
<path d="M34.0002 56.6665H28.3335V62.3332H34.0002V56.6665Z" fill="white"/>
<path d="M79.3333 22.6665H85V45.3332H79.3333V22.6665Z" fill="white"/>
<path d="M73.6668 45.333H79.3335V56.6663H73.6668V45.333Z" fill="white"/>
<path d="M62.3332 5.6665H73.6665V11.3332H62.3332V5.6665Z" fill="white"/>
<path d="M73.6668 11.333H79.3335V22.6663H73.6668V11.333Z" fill="white"/>
<path d="M67.9998 56.6665H73.6665V62.3332H67.9998V56.6665Z" fill="white"/>
<path d="M39.6668 90.6665H45.3335V96.3332H39.6668V90.6665Z" fill="white"/>
<path d="M39.6668 22.6665H45.3335V28.3332H39.6668V22.6665Z" fill="white"/>
<path d="M39.6668 39.6665H45.3335V56.6665H39.6668V39.6665Z" fill="white"/>
<path d="M56.6668 39.6665H62.3335V56.6665H56.6668V39.6665Z" fill="white"/>
<path d="M33.9998 28.333H39.6665V39.6663H33.9998V28.333Z" fill="white"/>
<path d="M62.3333 28.333H68V39.6663H62.3333V28.333Z" fill="white"/>
<path d="M45.3333 96.333H51V102H45.3333V96.333Z" fill="white"/>
<path d="M45.3333 28.333H51V33.9997H45.3333V28.333Z" fill="white"/>
<path d="M50.9998 96.333H56.6665V102H50.9998V96.333Z" fill="white"/>
<path d="M50.9998 28.333H56.6665V33.9997H50.9998V28.333Z" fill="white"/>
<path d="M50.9998 85H56.6665V90.6667H50.9998V85Z" fill="white"/>
<path d="M56.6668 85H62.3335V90.6667H56.6668V85Z" fill="white"/>
<path d="M39.6668 79.333H45.3335V84.9997H39.6668V79.333Z" fill="white"/>
<path d="M45.3333 79.333H51V84.9997H45.3333V79.333Z" fill="white"/>
<path d="M50.9998 73.6665H56.6665V79.3332H50.9998V73.6665Z" fill="white"/>
<path d="M56.6668 73.667H62.3335V79.3337H56.6668V73.667Z" fill="white"/>
<path d="M39.6668 68H45.3335V73.6667H39.6668V68Z" fill="white"/>
<path d="M45.3333 68H51V73.6667H45.3333V68Z" fill="white"/>
<path d="M50.9998 62.3335H56.6665V68.0002H50.9998V62.3335Z" fill="white"/>
<path d="M56.6668 62.3335H62.3335V68.0002H56.6668V62.3335Z" fill="white"/>
<path d="M45.3333 56.6665H51V62.3332H45.3333V56.6665Z" fill="white"/>
<path d="M50.9998 56.6665H56.6665V62.3332H50.9998V56.6665Z" fill="white"/>
<path d="M56.6668 90.6665H62.3335V96.3332H56.6668V90.6665Z" fill="white"/>
<path d="M56.6668 22.6665H62.3335V28.3332H56.6668V22.6665Z" fill="white"/>
<path d="M33.9998 62.333H39.6665V90.6663H33.9998V62.333Z" fill="white"/>
<path d="M62.3333 62.333H68V90.6663H62.3333V62.333Z" fill="white"/>
</svg>